<svg xmlns="http://www.w3.org/2000/svg" viewBox="0 0 64 64" width="64" height="64">
  <path d="M14 6h36a4 4 0 0 1 4 4v48.5a1.5 1.5 0 0 1-2.4 1.2L32 45 12.4 59.7A1.5 1.5 0 0 1 10 58.5V10a4 4 0 0 1 4-4z" fill="#8FB0FF"/>
  <rect x="20" y="16" width="24" height="6" rx="1.5" fill="#10204A"/>
  <path d="M22 24h20v10a2 2 0 0 1-2 2H24a2 2 0 0 1-2-2z" fill="none" stroke="#10204A" stroke-width="3" stroke-linejoin="round"/>
  <path d="M28 28.5h8" stroke="#10204A" stroke-width="3" stroke-linecap="round"/>
</svg>
